<svg width="747" height="877" viewBox="0 0 747 877" fill="none" xmlns="http://www.w3.org/2000/svg">
<mask id="mask0_87_120" style="mask-type:alpha" maskUnits="userSpaceOnUse" x="0" y="0" width="747" height="877">
<path fill-rule="evenodd" clip-rule="evenodd" d="M410.278 0.660905C505.7 5.37687 606.076 42.2627 664.338 119.058C692.341 155.968 696.007 200.934 695.232 248C694.516 291.479 690.011 336.749 697.4 379.114C709.771 450.044 755.942 512.961 745.466 584.204C733.86 663.132 696.856 738.452 636.951 790.186C574.211 844.368 491.112 889.895 410.278 873.671C331.931 857.947 307.525 754.823 240.587 710.635C167.348 662.287 39.6601 688.785 6.18262 606.913C-26.6128 526.71 80.7152 456.257 102.204 372.209C112.278 332.805 109.227 289.93 106.983 248C103.925 190.862 102.367 135.479 137.569 93.0241C200.801 16.7636 312.153 -4.1886 410.278 0.660905Z" fill="#FFC637"/>
</mask>
<g mask="url(#mask0_87_120)">
<path fill-rule="evenodd" clip-rule="evenodd" d="M410.278 0.660905C505.7 5.37687 606.076 42.2627 664.339 119.058C718.209 190.064 682.012 290.888 697.4 379.114C709.771 450.044 755.942 512.961 745.466 584.204C733.86 663.132 696.856 738.452 636.951 790.186C574.211 844.368 491.112 889.895 410.278 873.671C331.931 857.947 307.525 754.823 240.587 710.635C167.348 662.287 39.6601 688.785 6.18262 606.913C-26.6128 526.71 80.7152 456.257 102.204 372.209C126.007 279.108 76.5348 166.633 137.569 93.0241C200.801 16.7636 312.153 -4.1886 410.278 0.660905Z" fill="white"/>
</g>
</svg>
